<?xml version="1.0" encoding="iso-8859-1"?>
<!-- Generator: Adobe Illustrator 19.0.0, SVG Export Plug-In . SVG Version: 6.00 Build 0)  -->
<svg version="1.1" id="Capa_1" xmlns="http://www.w3.org/2000/svg" xmlns:xlink="http://www.w3.org/1999/xlink" x="0px" y="0px"
	 viewBox="0 0 407.76 407.76" style="enable-background:new 0 0 407.76 407.76;" xml:space="preserve">
<g>
	<g>
		<path d="M400.2,108.4c-10.08-10.72-33.6-16.48-69.92-16.48h-7.36c8.056-26.851,4.548-55.845-9.68-80c-5.36-8-10-11.92-15.04-11.92
			c-4.029-0.022-7.628,2.517-8.96,6.32c-2.24,5.6-13.36,26.64-22.16,41.28h-126.4c-8.8-14.64-19.92-35.68-22.16-41.2
			c-1.332-3.803-4.931-6.341-8.96-6.32C104.52,0,99.88,3.92,94.52,11.92c-14.228,24.155-17.736,53.149-9.68,80h-7.36
			c-36.32,0-59.84,5.44-69.92,16c-2.541,2.718-2.873,6.83-0.8,9.92c3.28,4.88,30.48,44,61.52,51.28
			c-12.8,31.36-45.2,122.8-6.88,183.6c22.96,36.56,66.96,55.04,130.64,55.04h11.52h12.08c64,0,107.68-18.56,130.72-55.12
			c38.32-60.88,5.92-152-6.88-183.04c30.96-7.2,58.24-46.4,61.52-51.28C403.073,115.23,402.741,111.118,400.2,108.4z M332.84,344.24
			v-0.32c-19.84,31.6-59.28,47.6-117.12,47.6h-12.08h-11.52c-57.84,0-97.2-16-117.12-47.6c-10.29-17.529-15.653-37.514-15.52-57.84
			c28.24-8.48,162.4-44.08,288.88,0C348.546,306.514,343.182,326.616,332.84,344.24z M347.88,269.2
			c-124.16-40.96-250.48-10.56-288,0c3.398-35.754,12.669-70.703,27.44-103.44c1.922-3.978,0.255-8.761-3.724-10.683
			c-1.328-0.642-2.808-0.904-4.276-0.757c-19.76,1.28-43.2-24-54.88-39.04c17.028-5.899,35.049-8.4,53.04-7.36
			c10.8,0,18.64,0.56,18.72,0.56c4.396,0.44,8.317-2.768,8.757-7.164c0.147-1.468-0.115-2.948-0.757-4.276
			c-11.148-24.435-9.777-52.756,3.68-76c7.04,13.92,19.6,35.6,21.36,38.64c1.42,2.46,4.039,3.983,6.88,4h7.52
			c8,27.6,48.48,134.64,188.08,134.64H333C340.864,221.243,345.862,245.05,347.88,269.2z M328.28,154.72
			c-2.841-0.218-5.584,1.093-7.2,3.44c-1.632,2.359-1.876,5.411-0.64,8c0,0,2.88,6.16,6.72,16
			C206.76,179.92,169.4,93.12,160.12,63.6h111.6c2.841-0.017,5.46-1.54,6.88-4c1.76-3.04,14.32-24.72,21.36-38.64
			c13.62,23.335,15.023,51.841,3.76,76.4c-1.922,3.978-0.255,8.761,3.724,10.683c1.328,0.642,2.808,0.904,4.276,0.757
			c0,0,8-0.56,18.72-0.56c17.943-0.993,35.907,1.535,52.88,7.44C371.88,130.96,347.88,155.92,328.28,154.72z"/>
	</g>
</g>
<g>
	<g>
		<path d="M134.714,352.321c-0.061-0.136-0.126-0.269-0.194-0.401l-14.32-29.76c-1.811-4.03-6.546-5.829-10.576-4.018
			c-4.03,1.811-5.829,6.546-4.018,10.576c0.061,0.136,0.126,0.269,0.194,0.401l14.32,29.76c1.811,4.03,6.546,5.829,10.576,4.018
			C134.726,361.087,136.525,356.351,134.714,352.321z"/>
	</g>
</g>
<g>
	<g>
		<path d="M298.538,318.336c-3.923-2.033-8.751-0.501-10.784,3.422c-0.068,0.132-0.133,0.266-0.194,0.401l-14.32,29.76
			c-1.93,3.974-0.274,8.761,3.701,10.691c0.02,0.01,0.04,0.019,0.059,0.029c3.977,1.888,8.732,0.207,10.64-3.76l14.32-29.76
			C303.993,325.197,302.461,320.369,298.538,318.336z"/>
	</g>
</g>
<g>
	<g>
		<circle cx="127.48" cy="141.04" r="18.72"/>
	</g>
</g>
<g>
	<g>
		<circle cx="280.36" cy="141.04" r="18.72"/>
	</g>
</g>
<g>
</g>
<g>
</g>
<g>
</g>
<g>
</g>
<g>
</g>
<g>
</g>
<g>
</g>
<g>
</g>
<g>
</g>
<g>
</g>
<g>
</g>
<g>
</g>
<g>
</g>
<g>
</g>
<g>
</g>
</svg>
