<?xml version="1.0" encoding="iso-8859-1"?>
<!-- Generator: Adobe Illustrator 19.0.0, SVG Export Plug-In . SVG Version: 6.00 Build 0)  -->
<svg version="1.1" id="Capa_1" xmlns="http://www.w3.org/2000/svg" xmlns:xlink="http://www.w3.org/1999/xlink" x="0px" y="0px"
	 viewBox="0 0 411.2 411.2" style="enable-background:new 0 0 411.2 411.2;" xml:space="preserve">
<path style="fill:#EAEEEF;" d="M345.6,284.8c-43.2-13.6-88-20.8-132.8-20c-50.4,0-100,7.2-148,20.8L48,290.4l0.8-16.8
	c3.2-35.2,12-69.6,26.4-102.4c-24-2.4-47.2-28-59.2-43.2l-8.8-12l13.6-6.4c15.2-7.2,40-8.8,58.4-8.8c4.8,0,9.6,0,12.8,0
	C81.6,73.6,84.8,44,99.2,19.2L110.4,0l9.6,19.2c6.4,12,16,29.6,20,36h14.4l2.4,8.8c8.8,29.6,47.2,126.4,176.8,126.4h9.6l2.4,8
	c8,24,13.6,48.8,16,73.6l1.6,17.6L345.6,284.8z"/>
<g>
	<path style="fill:#C98D65;" d="M217.6,408h-12.8h-11.2c-62.4,0-104.8-17.6-127.2-53.6c-11.2-19.2-17.6-41.6-17.6-64v-8.8l8.8-2.4
		c50.4-14.4,103.2-21.6,156-22.4c48-0.8,95.2,7.2,140,22.4l8,3.2v8.8c0,22.4-5.6,44.8-17.6,64C322.4,390.4,280,408,217.6,408z"/>
	<path style="fill:#C98D65;" d="M328.8,198.4C199.2,196,160,100.8,150.4,71.2L145.6,56h125.6c4-6.4,13.6-24,20-36l9.6-19.2L312,19.2
		c14.4,24.8,16.8,54.4,7.2,81.6c3.2,0,8,0,12.8,0c18.4,0,43.2,1.6,58.4,8.8L404,116l-8.8,11.2c-9.6,12.8-33.6,40.8-59.2,43.2
		c1.6,3.2,2.4,6.4,4.8,11.2l6.4,16.8L328.8,198.4z"/>
</g>
<g>
	<path style="fill:#240A00;" d="M332,96h-7.2c8-27.2,4.8-56-9.6-80C309.6,8,304.8,4,300,4c-4,0-8,2.4-8.8,6.4
		c-2.4,5.6-13.6,26.4-22.4,41.6H142.4c-8.8-15.2-20-36-22.4-41.6c-1.6-4-4.8-6.4-8.8-6.4c-4.8,0-9.6,4-15.2,12
		c-14.4,24-17.6,52.8-9.6,80h-7.2c-36,0-60,5.6-69.6,16c-2.4,2.4-3.2,7.2-0.8,9.6c3.2,4.8,30.4,44,61.6,51.2
		C57.6,204,24.8,296,63.2,356c23.2,36.8,67.2,55.2,130.4,55.2h12h12c64,0,108-18.4,130.4-55.2c38.4-60.8,5.6-152-7.2-183.2
		c31.2-7.2,58.4-46.4,61.6-51.2c2.4-3.2,1.6-7.2-0.8-9.6C392,101.6,368,96,332,96z M334.4,348c-20,32-59.2,48-116.8,48h-12h-11.2
		c-57.6,0-96.8-16-116.8-48c-10.4-17.6-16-37.6-15.2-57.6c28-8.8,162.4-44,288.8,0C350.4,310.4,344.8,330.4,334.4,348L334.4,348z
		 M349.6,273.6c-124-40.8-250.4-10.4-288,0c3.2-36,12.8-70.4,27.2-103.2c1.6-4,0-8.8-4-10.4c-1.6-0.8-3.2-0.8-4-0.8
		c-20,1.6-43.2-24-55.2-39.2c16.8-5.6,35.2-8,52.8-7.2c11.2,0,18.4,0.8,18.4,0.8c4,0.8,8-2.4,8.8-7.2c0-1.6,0-3.2-0.8-4
		c-11.2-24.8-9.6-52.8,4-76c7.2,13.6,20,35.2,21.6,38.4c1.6,2.4,4,4,7.2,4h7.2c8,27.2,48.8,134.4,188,134.4h1.6
		C342.4,225.6,347.2,248.8,349.6,273.6z M329.6,159.2c-3.2,0-5.6,0.8-7.2,3.2s-1.6,5.6-0.8,8c0,0,3.2,6.4,6.4,16
		C208,184,170.4,97.6,160.8,68H272c3.2,0,5.6-1.6,7.2-4c1.6-3.2,14.4-24.8,21.6-38.4c13.6,23.2,15.2,52,4,76.8c-1.6,4,0,8.8,4,10.4
		c1.6,0.8,3.2,0.8,4,0.8c0,0,8-0.8,18.4-0.8c17.6-0.8,36,1.6,52.8,7.2C373.6,135.2,349.6,160,329.6,159.2z"/>
	<path style="fill:#240A00;" d="M121.6,326.4c-1.6-4-6.4-5.6-10.4-4s-5.6,6.4-4,10.4c0,0,0,0,0,0.8l14.4,29.6c1.6,4,6.4,5.6,10.4,4
		s5.6-6.4,4-10.4c0,0,0,0,0-0.8L121.6,326.4z"/>
	<path style="fill:#240A00;" d="M278.4,366.4c4,1.6,8.8,0,10.4-4l14.4-29.6c2.4-4,0.8-8.8-3.2-10.4s-8.8-0.8-10.4,3.2c0,0,0,0,0,0.8
		L275.2,356C272.8,360,274.4,364.8,278.4,366.4L278.4,366.4z"/>
	<circle style="fill:#240A00;" cx="129.6" cy="144.8" r="18.4"/>
	<circle style="fill:#240A00;" cx="282.4" cy="144.8" r="18.4"/>
</g>
<g>
</g>
<g>
</g>
<g>
</g>
<g>
</g>
<g>
</g>
<g>
</g>
<g>
</g>
<g>
</g>
<g>
</g>
<g>
</g>
<g>
</g>
<g>
</g>
<g>
</g>
<g>
</g>
<g>
</g>
</svg>
