<svg width="36" height="36" viewBox="0 0 36 36" fill="none" xmlns="http://www.w3.org/2000/svg" data-tip="Whale LP moving 1%+ of existing pool liquidity" data-for="sidebar-liquidity-tooltip" currentItem="false"><g clip-path="url(#clip0)"><path d="M34.4531 15.5728C33.5891 8.27284 28.7241 5.12584 20.5231 5.12584C20.1321 5.12584 19.7601 5.14284 19.3841 5.15684C19.3711 5.14684 19.3621 5.13584 19.3491 5.12584C14.6551 1.60484 4.09106 2.77884 1.74506 6.29984C-1.50994 11.1828 0.571063 28.5998 1.74506 30.9458C2.91806 33.2958 6.43906 34.4668 7.61306 33.2958C8.78706 32.1198 7.61306 32.1198 6.44006 29.7748C5.59006 28.0738 5.97406 23.9158 6.69506 21.3038C6.72306 21.4718 6.76306 21.6258 6.79506 21.7898C7.18506 24.6608 8.78806 29.2018 8.78806 31.5338C8.78806 35.0978 10.8901 35.6408 13.4821 35.6408C16.0751 35.6408 18.1771 35.0978 18.1771 31.5338C18.1771 31.2938 18.1691 31.0708 18.1651 30.8388C18.9221 30.9028 19.7001 30.9458 20.5241 30.9458C21.0211 30.9458 21.5011 30.9298 21.9721 30.9068C21.9681 31.1158 21.9591 31.3168 21.9591 31.5338C21.9591 35.0978 24.0621 35.6408 26.6531 35.6408C29.2461 35.6408 31.3481 35.0978 31.3481 31.5338C31.3481 29.7328 32.5401 26.9088 33.3871 24.5518C33.5461 24.1978 33.6781 23.8198 33.8071 23.4348C33.9251 24.7418 34.0001 26.1408 34.0001 27.6408C34.0001 28.1938 34.4471 28.6408 35.0001 28.6408C35.5531 28.6408 36.0001 28.1938 36.0001 27.6408C36.0001 22.4878 35.2291 18.3928 34.4531 15.5728Z" fill="#99AAB5"></path><path d="M19.3499 5.12695C19.3499 5.12695 22.9999 10.642 19.9999 15.642C16.9999 20.642 12.1619 20.642 8.99992 20.642C6.99992 20.642 7.99992 22.642 8.99992 22.642C10.4139 22.642 17.3949 23.853 20.9999 16.642C23.9999 10.642 19.3499 5.12695 19.3499 5.12695Z" fill="#66757F"></path><path d="M6.5 15.6406C7.32843 15.6406 8 14.9691 8 14.1406C8 13.3122 7.32843 12.6406 6.5 12.6406C5.67157 12.6406 5 13.3122 5 14.1406C5 14.9691 5.67157 15.6406 6.5 15.6406Z" fill="#292F33"></path></g><defs><clipPath id="clip0"><rect width="36" height="36" fill="white"></rect></clipPath></defs></svg>